<svg width="8" height="8" viewBox="0 0 8 8" fill="none" xmlns="http://www.w3.org/2000/svg">
<path d="M7.81389 0.186109C7.69469 0.0669437 7.53304 0 7.36449 0C7.19594 0 7.03429 0.0669437 6.91508 0.186109L4 3.10119L1.08492 0.186109C0.965715 0.0669437 0.804064 0 0.635513 0C0.466961 0 0.305311 0.0669437 0.186109 0.186109C0.0669437 0.305311 0 0.466961 0 0.635513C0 0.804064 0.0669437 0.965715 0.186109 1.08492L3.10119 4L0.186109 6.91508C0.0669437 7.03429 0 7.19594 0 7.36449C0 7.53304 0.0669437 7.69469 0.186109 7.81389C0.305311 7.93306 0.466961 8 0.635513 8C0.804064 8 0.965715 7.93306 1.08492 7.81389L4 4.89881L6.91508 7.81389C7.03429 7.93306 7.19594 8 7.36449 8C7.53304 8 7.69469 7.93306 7.81389 7.81389C7.93306 7.69469 8 7.53304 8 7.36449C8 7.19594 7.93306 7.03429 7.81389 6.91508L4.89881 4L7.81389 1.08492C7.93306 0.965715 8 0.804064 8 0.635513C8 0.466961 7.93306 0.305311 7.81389 0.186109V0.186109Z" fill="#ABABAB"/>
</svg>
