<svg width="20" height="20" viewBox="0 0 20 20" fill="none" xmlns="http://www.w3.org/2000/svg">
<path d="M16.6504 2.4918C16.6193 2.49278 16.5884 2.4955 16.5576 2.49994H12.5C12.3896 2.49838 12.2799 2.51878 12.1775 2.55996C12.075 2.60114 11.9817 2.66227 11.9031 2.73981C11.8244 2.81734 11.762 2.90974 11.7194 3.01162C11.6767 3.1135 11.6548 3.22284 11.6548 3.33327C11.6548 3.44371 11.6767 3.55305 11.7194 3.65493C11.762 3.75681 11.8244 3.8492 11.9031 3.92674C11.9817 4.00428 12.075 4.06541 12.1775 4.10659C12.2799 4.14777 12.3896 4.16817 12.5 4.16661H14.6549L6.91081 11.9107C6.83083 11.9875 6.76698 12.0795 6.72299 12.1813C6.679 12.2831 6.65576 12.3926 6.65464 12.5035C6.65351 12.6143 6.67451 12.7243 6.71642 12.8269C6.75833 12.9296 6.8203 13.0228 6.8987 13.1012C6.97709 13.1796 7.07035 13.2416 7.173 13.2835C7.27564 13.3254 7.38562 13.3464 7.49649 13.3453C7.60736 13.3442 7.71688 13.3209 7.81866 13.277C7.92043 13.233 8.01241 13.1691 8.08919 13.0891L15.8333 5.34499V7.49994C15.8318 7.61037 15.8522 7.72 15.8934 7.82248C15.9345 7.92495 15.9957 8.01822 16.0732 8.09686C16.1507 8.1755 16.2431 8.23795 16.345 8.28057C16.4469 8.32319 16.5562 8.34514 16.6667 8.34514C16.7771 8.34514 16.8864 8.32319 16.9883 8.28057C17.0902 8.23795 17.1826 8.1755 17.2601 8.09686C17.3377 8.01822 17.3988 7.92495 17.44 7.82248C17.4812 7.72 17.5016 7.61037 17.5 7.49994V3.43907C17.5166 3.31909 17.5068 3.19693 17.4714 3.08111C17.436 2.96528 17.3757 2.85857 17.2949 2.76841C17.214 2.67824 17.1144 2.60678 17.0031 2.55901C16.8918 2.51124 16.7715 2.48831 16.6504 2.4918ZM4.16667 2.49994C3.25578 2.49994 2.5 3.25572 2.5 4.16661V15.8333C2.5 16.7442 3.25578 17.4999 4.16667 17.4999H15.8333C16.7442 17.4999 17.5 16.7442 17.5 15.8333V10.8333C17.5016 10.7228 17.4812 10.6132 17.44 10.5107C17.3988 10.4083 17.3377 10.315 17.2601 10.2364C17.1826 10.1577 17.0902 10.0953 16.9883 10.0526C16.8864 10.01 16.7771 9.98807 16.6667 9.98807C16.5562 9.98807 16.4469 10.01 16.345 10.0526C16.2431 10.0953 16.1507 10.1577 16.0732 10.2364C15.9957 10.315 15.9345 10.4083 15.8934 10.5107C15.8522 10.6132 15.8318 10.7228 15.8333 10.8333V15.8333H4.16667V4.16661H9.16667C9.27709 4.16817 9.38673 4.14777 9.4892 4.10659C9.59168 4.06541 9.68494 4.00428 9.76359 3.92674C9.84223 3.8492 9.90467 3.75681 9.9473 3.65493C9.98992 3.55305 10.0119 3.44371 10.0119 3.33327C10.0119 3.22284 9.98992 3.1135 9.9473 3.01162C9.90467 2.90974 9.84223 2.81734 9.76359 2.73981C9.68494 2.66227 9.59168 2.60114 9.4892 2.55996C9.38673 2.51878 9.27709 2.49838 9.16667 2.49994H4.16667Z" fill="#494A58"/>
</svg>
