<svg width="16" height="16" viewBox="0 0 16 16" fill="none" xmlns="http://www.w3.org/2000/svg">
<path d="M15 3.5V7.5C15 7.63261 14.9473 7.75979 14.8536 7.85355C14.7598 7.94732 14.6326 8 14.5 8C14.3674 8 14.2402 7.94732 14.1465 7.85355C14.0527 7.75979 14 7.63261 14 7.5V4.70625L8.85625 9.85625C8.76146 9.95014 8.63343 10.0028 8.5 10.0028C8.36658 10.0028 8.23855 9.95014 8.14375 9.85625L6 7.70625L1.85626 11.8562C1.76068 11.9487 1.63295 12.0003 1.5 12.0003C1.36706 12.0003 1.23933 11.9487 1.14375 11.8562C1.04986 11.7615 0.997192 11.6334 0.997192 11.5C0.997192 11.3666 1.04986 11.2385 1.14375 11.1438L5.64375 6.64375C5.73855 6.54986 5.86658 6.49719 6 6.49719C6.13343 6.49719 6.26146 6.54986 6.35625 6.64375L8.5 8.79375L13.2938 4H10.5C10.3674 4 10.2402 3.94732 10.1465 3.85355C10.0527 3.75979 10 3.63261 10 3.5C10 3.36739 10.0527 3.24021 10.1465 3.14645C10.2402 3.05268 10.3674 3 10.5 3H14.5C14.6326 3 14.7598 3.05268 14.8536 3.14645C14.9473 3.24021 15 3.36739 15 3.5Z" fill="#00DC7D"/>
</svg>
