<svg width="15" height="17" viewBox="0 0 15 17" fill="none" xmlns="http://www.w3.org/2000/svg">
<path d="M13.6707 9.23948V13.2395C13.6707 13.3721 13.6238 13.4993 13.5405 13.593C13.4571 13.6868 13.3441 13.7395 13.2262 13.7395H9.67065C9.55278 13.7395 9.43973 13.6868 9.35638 13.593C9.27303 13.4993 9.22621 13.3721 9.22621 13.2395C9.22621 13.1069 9.27303 12.9797 9.35638 12.8859C9.43973 12.7922 9.55278 12.7395 9.67065 12.7395H12.154L7.89287 7.94573L5.98732 10.0957C5.90305 10.1896 5.78925 10.2423 5.67065 10.2423C5.55205 10.2423 5.43825 10.1896 5.35398 10.0957L1.35398 5.59573C1.28311 5.49858 1.24689 5.37525 1.25237 5.24973C1.25785 5.1242 1.30464 5.00546 1.38363 4.91659C1.46263 4.82772 1.56818 4.77509 1.67976 4.76892C1.79134 4.76276 1.90096 4.8035 1.98732 4.88323L5.67065 9.03323L7.57621 6.88323C7.66047 6.78934 7.77428 6.73667 7.89287 6.73667C8.01147 6.73667 8.12528 6.78934 8.20954 6.88323L12.7818 12.0332V9.23948C12.7818 9.10688 12.8286 8.9797 12.9119 8.88593C12.9953 8.79216 13.1083 8.73948 13.2262 8.73948C13.3441 8.73948 13.4571 8.79216 13.5405 8.88593C13.6238 8.9797 13.6707 9.10688 13.6707 9.23948Z" fill="#FF324B"/>
</svg>
