<svg xmlns="http://www.w3.org/2000/svg" viewBox="0 0 10 10"><defs><style>.cls-1{fill:#808181;}</style></defs><g id="Camada_2" data-name="Camada 2"><g id="Camada_1-2" data-name="Camada 1"><path className="cls-1" d="M5,0a5,5,0,1,0,5,5A5,5,0,0,0,5,0ZM5,9.17A4.17,4.17,0,1,1,9.17,5,4.17,4.17,0,0,1,5,9.17Zm2.38-3.7a.41.41,0,0,0-.59,0L5.42,6.84V2.5A.41.41,0,0,0,5,2.08a.42.42,0,0,0-.42.42V6.84L3.21,5.47a.42.42,0,0,0-.59,0A.41.41,0,0,0,2.6,6v0h0l1.5,1.49a1.24,1.24,0,0,0,1.76,0h0l1.5-1.49A.42.42,0,0,0,7.38,5.47Z"/></g></g></svg>