<?xml version="1.0" encoding="utf-8"?>
<!-- Generator: Adobe Illustrator 25.2.1, SVG Export Plug-In . SVG Version: 6.00 Build 0)  -->
<svg version="1.1" id="Camada_1" xmlns="http://www.w3.org/2000/svg" xmlns:xlink="http://www.w3.org/1999/xlink" x="0px" y="0px"
	 viewBox="0 0 10 10" style="enable-background:new 0 0 10 10;" xml:space="preserve">
<style type="text/css">
	.st0{fill:#E18701;}
	.st1{fill:none;}
</style>
<g id="Camada_2_1_">
	<g id="Camada_1-2">
		<path class="st0" d="M5,0C2.2,0,0,2.2,0,5s2.2,5,5,5s5-2.2,5-5S7.8,0,5,0z M7.3,5.4H2.7C2.4,5.4,2.3,5.2,2.3,5s0.2-0.4,0.4-0.4
			h4.6c0.2,0,0.4,0.2,0.4,0.4S7.6,5.4,7.3,5.4z"/>
		<path class="st1" d="M7.7,5c0,0.2-0.2,0.4-0.4,0.4l0,0H2.7C2.4,5.4,2.3,5.2,2.3,5s0.2-0.4,0.4-0.4h4.6C7.6,4.6,7.7,4.8,7.7,5z"/>
	</g>
</g>
</svg>
