<svg width="143" height="185" viewBox="0 0 143 185" fill="none" xmlns="http://www.w3.org/2000/svg">
<circle cx="71.5" cy="71.5" r="71.5" fill="#2B2B36"/>
<rect x="43.4505" y="70.0427" width="70" height="98" rx="7" transform="rotate(2.5 43.4505 70.0427)" fill="#353540" stroke="#1C1D26" stroke-width="2"/>
<rect x="1.83591" y="64.1806" width="74" height="102" rx="9" transform="rotate(-7.5 1.83591 64.1806)" fill="#3B3B45" stroke="#1C1D26" stroke-width="2"/>
<path d="M4.0021 72.9731C3.42539 68.5926 6.50897 64.574 10.8894 63.9973L66.4104 56.6878C70.7908 56.1111 74.8094 59.1947 75.3861 63.5752L77.344 78.4468L5.95999 87.8447L4.0021 72.9731Z" fill="#353540"/>
<rect x="89.8662" y="58.6431" width="3" height="10" rx="1.5" transform="rotate(82.5 89.8662 58.6431)" fill="#1C1D26"/>
<rect x="62.4696" y="42.0771" width="3" height="10" rx="1.5" transform="rotate(-7.5 62.4696 42.0771)" fill="#1C1D26"/>
<rect x="80.0472" y="44.8062" width="3" height="10" rx="1.5" transform="rotate(37.5 80.0472 44.8062)" fill="#1C1D26"/>
<rect x="13.4222" y="90.897" width="58" height="4" rx="2" transform="rotate(-7.5 13.4222 90.897)" fill="#31313A"/>
<rect x="16.0327" y="110.726" width="58" height="4" rx="2" transform="rotate(-7.5 16.0327 110.726)" fill="#31313A"/>
<rect x="18.6432" y="130.555" width="58" height="4" rx="2" transform="rotate(-7.5 18.6432 130.555)" fill="#31313A"/>
<rect x="14.4664" y="98.8286" width="21" height="4" rx="2" transform="rotate(-7.5 14.4664 98.8286)" fill="#353540"/>
<rect x="17.077" y="118.657" width="21" height="4" rx="2" transform="rotate(-7.5 17.077 118.657)" fill="#353540"/>
<rect x="19.6875" y="138.486" width="21" height="4" rx="2" transform="rotate(-7.5 19.6875 138.486)" fill="#353540"/>
</svg>
