<svg width="239" height="220" viewBox="0 0 239 220" fill="none" xmlns="http://www.w3.org/2000/svg">
<path d="M219.715 120.358C219.715 173.575 176.575 216.715 123.358 216.715C70.1408 216.715 27 173.575 27 120.358C27 67.1408 70.1408 24 123.358 24C176.575 24 219.715 67.1408 219.715 120.358Z" fill="#2B2B36"/>
<circle cx="122.57" cy="120.522" r="56.6196" fill="#2B2B36" stroke="#1C1D26" stroke-width="2"/>
<circle cx="122.57" cy="120.522" r="40.1568" fill="#353540" stroke="#1C1D26" stroke-width="2"/>
<path d="M122.57 90.2644C122.57 89.66 122.079 89.1681 121.475 89.1892C113.914 89.4531 106.688 92.4448 101.145 97.632C95.6032 102.819 92.1403 109.832 91.3772 117.36C91.3163 117.961 91.7747 118.483 92.3778 118.523V118.523C92.9808 118.562 93.5 118.105 93.5625 117.504C94.2879 110.531 97.5043 104.038 102.641 99.23C107.778 94.4223 114.469 91.6421 121.475 91.3792C122.079 91.3566 122.57 90.8688 122.57 90.2644V90.2644Z" fill="#1C1D26"/>
<rect x="166.922" y="181.625" width="18.11" height="55.7001" rx="9.05502" transform="rotate(-45 166.922 181.625)" fill="#2B2B36" stroke="#1C1D26" stroke-width="2"/>
<rect x="186.275" y="186.149" width="2.61568" height="21.9317" rx="1.30784" transform="rotate(-45 186.275 186.149)" fill="#353540"/>
<rect x="164.529" y="168.324" width="2.68501" height="10.74" transform="rotate(-45 164.529 168.324)" fill="#1C1D26"/>
<rect x="193.018" y="113.761" width="26.8501" height="2.68501" rx="1.3425" fill="#1C1D26"/>
<rect x="27" y="135.973" width="26.8501" height="2.68501" rx="1.3425" fill="#1C1D26"/>
<rect x="225.238" y="113.761" width="13.425" height="2.68501" rx="1.3425" fill="#1C1D26"/>
<rect x="199.73" y="123.613" width="13.425" height="2.68501" rx="1.3425" fill="#1C1D26"/>
<rect x="33.7124" y="145.824" width="13.425" height="2.68501" rx="1.3425" fill="#1C1D26"/>
<path d="M66.7752 81.1868C59.7313 95.7355 42.227 101.819 27.6784 94.7753C13.1298 87.7313 7.04603 70.2271 14.09 55.6785C21.1339 41.1298 38.6382 35.0461 53.1868 42.09C67.7354 49.134 73.8192 66.6382 66.7752 81.1868Z" fill="#2B2B36" stroke="#171821" stroke-width="2"/>
<rect width="16.3659" height="2.45488" transform="matrix(1 0 0 -1 31.0222 77.0247)" fill="#1C1D26"/>
<circle cx="23.2484" cy="63.5229" r="4.50061" fill="#1C1D26"/>
<circle cx="55.162" cy="63.5229" r="4.50061" fill="#1C1D26"/>
<path d="M195.536 4.26821C195.536 6.62548 193.625 8.53642 191.268 8.53642C188.911 8.53642 187 6.62548 187 4.26821C187 1.91094 188.911 0 191.268 0C193.625 0 195.536 1.91094 195.536 4.26821Z" fill="#353540"/>
<circle cx="228.916" cy="44.9163" r="1.91628" fill="#464655"/>
<circle cx="207.916" cy="54.9163" r="1.91628" fill="#464655"/>
<circle cx="176.916" cy="40.9163" r="1.91628" fill="#464655"/>
<circle cx="128.491" cy="14.4912" r="2.49116" fill="#2B2B36"/>
<path d="M224.529 17.7764L226.822 15.4835L228.48 17.1413L226.187 19.4342L228.779 22.0257L227.032 23.7724L224.441 21.1809L222.141 23.4802L220.483 21.8224L222.783 19.5231L220.299 17.0396L222.046 15.2929L224.529 17.7764Z" fill="#353540"/>
<path d="M159.256 12.8452L161.102 10.9993L162.437 12.3338L160.591 14.1797L162.677 16.2659L161.271 17.6721L159.185 15.5859L157.334 17.4369L155.999 16.1023L157.85 14.2513L155.851 12.252L157.257 10.8459L159.256 12.8452Z" fill="#383845"/>
<path d="M200.35 25.4504L201.526 24.2741L202.377 25.1246L201.2 26.3009L202.53 27.6304L201.634 28.5265L200.304 27.197L199.125 28.3766L198.274 27.5261L199.454 26.3465L198.18 25.0725L199.076 24.1763L200.35 25.4504Z" fill="#2B2B36"/>
<path d="M21.5364 159.268C21.5364 161.625 19.6255 163.536 17.2682 163.536C14.9109 163.536 13 161.625 13 159.268C13 156.911 14.9109 155 17.2682 155C19.6255 155 21.5364 156.911 21.5364 159.268Z" fill="#353540"/>
<circle cx="57.9163" cy="190.916" r="1.91628" fill="#464655"/>
<circle cx="6.91628" cy="179.916" r="1.91628" fill="#2B2B36"/>
<path d="M32.3498 186.45L33.5261 185.274L34.3766 186.125L33.2003 187.301L34.5298 188.63L33.6337 189.526L32.3042 188.197L31.1246 189.377L30.2741 188.526L31.4537 187.347L30.1796 186.072L31.0757 185.176L32.3498 186.45Z" fill="#383845"/>
</svg>
