<svg width="171" height="151" viewBox="0 0 171 151" fill="none" xmlns="http://www.w3.org/2000/svg">
<circle cx="92.6946" cy="74.7282" r="71.103" fill="#2B2B36"/>
<path d="M103.742 57.9531L170.433 76.7739L163.477 150.829L83.6935 130.781L103.742 57.9531Z" fill="#1C1D26"/>
<path d="M170.023 76.3648L100.059 58.3623C96.6497 63.2721 87.8667 75.9556 80.0111 87.4117C72.1555 98.8678 58.4627 112.915 52.5983 118.507L134.428 142.646C135.928 141.828 142.283 135.855 155.703 118.507C169.123 101.159 170.842 83.1839 170.023 76.3648Z" fill="#2B2B36" stroke="#1C1D26" stroke-width="0.818293"/>
<circle cx="106.197" cy="77.5923" r="3.27317" fill="#1C1D26"/>
<circle cx="96.3771" cy="94.7763" r="3.27317" fill="#1C1D26"/>
<circle cx="86.5575" cy="110.324" r="3.27317" fill="#1C1D26"/>
<circle cx="40.4326" cy="40.4326" r="29.8586" transform="rotate(25.8347 40.4326 40.4326)" fill="#2B2B36" stroke="#1C1D26" stroke-width="0.818293"/>
<rect width="16.3659" height="2.45488" transform="matrix(1 0 0 -1 31.0223 49.0247)" fill="#1C1D26"/>
<circle cx="23.2485" cy="35.5228" r="4.50061" fill="#1C1D26"/>
<circle cx="55.162" cy="35.5228" r="4.50061" fill="#1C1D26"/>
<rect x="104.74" y="97.6011" width="39.2781" height="1.63659" rx="0.818293" transform="rotate(15.5 104.74 97.6011)" fill="#1C1D26"/>
<rect x="96.1733" y="114.184" width="35.5522" height="1.63659" rx="0.818293" transform="rotate(15.5 96.1733 114.184)" fill="#1C1D26"/>
<rect x="115.522" y="80.0842" width="39.2781" height="1.63659" rx="0.818293" transform="rotate(14.5 115.522 80.0842)" fill="#1C1D26"/>
</svg>
