<svg width="234" height="220" viewBox="0 0 234 220" fill="none" xmlns="http://www.w3.org/2000/svg">
<path d="M214.715 120.358C214.715 173.575 171.575 216.715 118.358 216.715C65.1408 216.715 22 173.575 22 120.358C22 67.1408 65.1408 24 118.358 24C171.575 24 214.715 67.1408 214.715 120.358Z" fill="#2B2B36"/>
<circle cx="117.57" cy="120.522" r="56.6196" fill="#2B2B36" stroke="#1C1D26" stroke-width="2"/>
<circle cx="117.57" cy="120.522" r="40.1568" fill="#353540" stroke="#1C1D26" stroke-width="2"/>
<path d="M117.57 90.2645C117.57 89.6601 117.079 89.1682 116.475 89.1893C108.914 89.4531 101.688 92.4449 96.1453 97.6321C90.6032 102.819 87.1403 109.832 86.3772 117.36C86.3163 117.961 86.7747 118.483 87.3778 118.523V118.523C87.9808 118.563 88.5 118.106 88.5625 117.504C89.2879 110.531 92.5043 104.038 97.6409 99.2301C102.778 94.4224 109.469 91.6422 116.475 91.3793C117.079 91.3567 117.57 90.8689 117.57 90.2645V90.2645Z" fill="#1C1D26"/>
<rect x="161.922" y="181.625" width="18.11" height="55.7001" rx="9.05502" transform="rotate(-45 161.922 181.625)" fill="#2B2B36" stroke="#1C1D26" stroke-width="2"/>
<rect x="181.275" y="186.149" width="2.61568" height="21.9317" rx="1.30784" transform="rotate(-45 181.275 186.149)" fill="#353540"/>
<rect x="159.529" y="168.324" width="2.68501" height="10.74" transform="rotate(-45 159.529 168.324)" fill="#1C1D26"/>
<rect x="188.018" y="113.761" width="26.8501" height="2.68501" rx="1.3425" fill="#1C1D26"/>
<rect x="22" y="135.973" width="26.8501" height="2.68501" rx="1.3425" fill="#1C1D26"/>
<rect x="220.238" y="113.761" width="13.425" height="2.68501" rx="1.3425" fill="#1C1D26"/>
<rect x="194.731" y="123.613" width="13.425" height="2.68501" rx="1.3425" fill="#1C1D26"/>
<rect x="28.7125" y="145.824" width="13.425" height="2.68501" rx="1.3425" fill="#1C1D26"/>
<path d="M190.536 4.26821C190.536 6.62548 188.625 8.53642 186.268 8.53642C183.911 8.53642 182 6.62548 182 4.26821C182 1.91094 183.911 0 186.268 0C188.625 0 190.536 1.91094 190.536 4.26821Z" fill="#353540"/>
<circle cx="223.916" cy="44.9163" r="1.91628" fill="#464655"/>
<circle cx="202.916" cy="54.9163" r="1.91628" fill="#464655"/>
<circle cx="171.916" cy="40.9163" r="1.91628" fill="#464655"/>
<circle cx="123.491" cy="14.4912" r="2.49116" fill="#2B2B36"/>
<path d="M219.529 17.7764L221.822 15.4834L223.48 17.1412L221.187 19.4341L223.779 22.0256L222.032 23.7723L219.441 21.1808L217.141 23.4801L215.483 21.8224L217.783 19.5231L215.299 17.0396L217.046 15.2929L219.529 17.7764Z" fill="#353540"/>
<path d="M154.256 12.8452L156.102 10.9993L157.437 12.3338L155.591 14.1797L157.677 16.2659L156.271 17.6721L154.185 15.5859L152.334 17.4369L150.999 16.1023L152.85 14.2513L150.851 12.252L152.257 10.8459L154.256 12.8452Z" fill="#383845"/>
<path d="M195.35 25.4504L196.526 24.274L197.377 25.1245L196.2 26.3008L197.53 27.6303L196.634 28.5264L195.304 27.1969L194.125 28.3765L193.274 27.526L194.454 26.3465L193.18 25.0724L194.076 24.1763L195.35 25.4504Z" fill="#2B2B36"/>
<path d="M16.5364 159.268C16.5364 161.625 14.6255 163.536 12.2682 163.536C9.91094 163.536 8 161.625 8 159.268C8 156.911 9.91094 155 12.2682 155C14.6255 155 16.5364 156.911 16.5364 159.268Z" fill="#353540"/>
<circle cx="52.9163" cy="190.916" r="1.91628" fill="#464655"/>
<circle cx="1.91628" cy="179.916" r="1.91628" fill="#2B2B36"/>
<path d="M27.3498 186.45L28.5261 185.274L29.3766 186.124L28.2003 187.301L29.5298 188.63L28.6337 189.526L27.3042 188.197L26.1246 189.377L25.2741 188.526L26.4537 187.346L25.1796 186.072L26.0757 185.176L27.3498 186.45Z" fill="#383845"/>
</svg>
