<svg width="168" height="182" viewBox="0 0 168 182" fill="none" xmlns="http://www.w3.org/2000/svg">
<circle cx="92.5" cy="89.5" r="71.5" fill="#2B2B36"/>
<path d="M106.53 81.3303C106.308 83.9195 107.122 86.4912 108.795 88.4802C110.467 90.4692 112.861 91.7128 115.45 91.9378L114.227 106.017L99.8835 104.771C99.6584 107.362 98.4135 109.757 96.4226 111.43C94.4316 113.102 91.8578 113.916 89.2672 113.691C86.6766 113.465 84.2816 112.221 82.6089 110.23C80.9362 108.239 80.123 105.665 80.348 103.074L70.4747 102.217C69.3078 102.115 68.2289 101.554 67.4755 100.658C66.722 99.7608 66.3557 98.6014 66.457 97.4344L69.8718 58.126C69.9732 56.959 70.534 55.8802 71.4308 55.1267C72.3276 54.3733 73.487 54.0069 74.6539 54.1083L118.406 57.9091L117.146 72.4111C114.556 72.1861 111.982 72.9993 109.991 74.672C108 76.3447 106.755 78.7397 106.53 81.3303V81.3303Z" fill="#353540" stroke="#1C1D26" stroke-width="2" stroke-miterlimit="10"/>
<path d="M166.159 66.4905L162.358 110.243L148.067 109.001C148.292 106.411 147.479 103.837 145.806 101.846C144.134 99.8552 141.739 98.6102 139.148 98.3852C136.557 98.1602 133.984 98.9734 131.993 100.646C130.002 102.319 128.757 104.714 128.532 107.304L114.223 106.061L115.446 91.9818C114.136 91.9075 112.854 91.571 111.676 90.9921C110.499 90.4132 109.449 89.6038 108.59 88.6118C107.731 87.6198 107.08 86.4654 106.675 85.2171C106.27 83.9688 106.12 82.6519 106.234 81.3445C106.347 80.0371 106.722 78.7658 107.336 77.606C107.95 76.4461 108.791 75.4214 109.808 74.5924C110.825 73.7634 111.999 73.1471 113.259 72.78C114.519 72.4128 115.839 72.3024 117.143 72.4551L118.406 57.9092L162.141 61.7084C162.719 61.7586 163.281 61.9222 163.796 62.1896C164.31 62.4571 164.767 62.8234 165.14 63.2674C165.513 63.7115 165.795 64.2247 165.97 64.7777C166.145 65.3307 166.209 65.9127 166.159 66.4905Z" fill="#41414E" stroke="#1C1D26" stroke-width="2" stroke-miterlimit="10"/>
<path d="M162.358 110.243L158.558 153.986C158.457 155.153 157.896 156.232 156.999 156.986C156.102 157.739 154.943 158.105 153.776 158.004L110.041 154.205L111.286 139.87C111.524 139.89 111.77 139.912 112.017 139.933C113.32 140.086 114.641 139.976 115.901 139.608C117.161 139.241 118.334 138.625 119.351 137.796C120.369 136.967 121.209 135.942 121.823 134.782C122.437 133.623 122.812 132.351 122.926 131.044C123.039 129.737 122.889 128.42 122.484 127.171C122.08 125.923 121.428 124.769 120.569 123.777C119.71 122.785 118.661 121.975 117.483 121.396C116.305 120.817 115.023 120.481 113.713 120.407C113.467 120.385 113.22 120.364 112.983 120.343L114.223 106.061L128.532 107.304C128.757 104.714 130.002 102.319 131.993 100.646C133.984 98.9732 136.557 98.1599 139.148 98.385C141.739 98.61 144.134 99.8549 145.806 101.846C147.479 103.837 148.292 106.411 148.067 109.001L162.358 110.243Z" fill="#353540" stroke="#1C1D26" stroke-width="2" stroke-miterlimit="10"/>
<path d="M105.056 139.94C105.268 141.212 105.227 142.512 104.936 143.768C104.645 145.023 104.109 146.209 103.359 147.257C102.609 148.305 101.66 149.195 100.566 149.876C99.472 150.558 98.2543 151.016 96.9828 151.226C96.7425 151.27 96.5003 151.302 96.2562 151.323L97.9015 161.165C97.997 161.738 97.9788 162.323 97.8478 162.889C97.7169 163.454 97.4758 163.988 97.1384 164.46C96.8009 164.932 96.3737 165.333 95.8812 165.64C95.3887 165.947 94.8405 166.154 94.268 166.249L55.3135 172.742C54.1601 172.933 52.9781 172.658 52.0266 171.979C51.0751 171.3 50.4318 170.271 50.2377 169.118L43.7375 130.145C43.5442 128.99 43.8175 127.806 44.4972 126.852C45.1769 125.899 46.2074 125.254 47.3622 125.06L57.1775 123.422C57.3842 124.696 57.8406 125.917 58.5205 127.015C59.2004 128.112 60.0903 129.065 61.1393 129.818C62.1882 130.57 63.3755 131.109 64.633 131.401C65.8905 131.694 67.1934 131.735 68.4669 131.523C69.7405 131.311 70.9596 130.849 72.0542 130.165C73.1489 129.48 74.0975 128.586 74.8458 127.534C75.594 126.482 76.127 125.292 76.4143 124.033C76.7016 122.775 76.7374 121.472 76.5197 120.199L86.3263 118.56C86.8987 118.464 87.4843 118.482 88.0497 118.613C88.6151 118.744 89.1491 118.985 89.6212 119.323C90.0934 119.66 90.4944 120.087 90.8013 120.58C91.1083 121.072 91.3152 121.621 91.4101 122.193L93.0818 132.038L93.7945 131.896C96.354 131.474 98.9763 132.084 101.087 133.592C103.198 135.1 104.625 137.383 105.056 139.94Z" fill="#41414E" stroke="#1C1D26" stroke-width="2" stroke-miterlimit="10"/>
<circle cx="66.5" cy="22.5" r="6.5" fill="#41414E"/>
<circle cx="41.5" cy="4.5" r="4.5" fill="#353540"/>
<circle cx="53" cy="45" r="3" fill="#41414E"/>
<circle cx="14" cy="58" r="3" fill="#353540"/>
<circle cx="7.5" cy="35.5" r="6" stroke="#1C1D26"/>
<circle cx="5.5" cy="77.5" r="5" stroke="#1C1D26"/>
<path d="M32.5295 24.7764L34.8224 22.4834L36.4802 24.1412L34.1872 26.4341L36.7787 29.0256L35.032 30.7723L32.4405 28.1808L30.1413 30.4801L28.4835 28.8224L30.7828 26.5231L28.2993 24.0396L30.046 22.2929L32.5295 24.7764Z" fill="#41414E"/>
</svg>
